#N canvas 452 122 921 607 12;
#X floatatom 221 261 5 0 0 0 - - - 0;
#X obj 222 148 random 2;
#X obj 222 190 sel 0 1;
#X msg 206 228 2;
#X msg 247 228 -2;
#X floatatom 260 298 5 0 0 0 - - - 0;
#X obj 218 297 + 0;
#X floatatom 213 341 5 0 0 0 - - - 0;
#X text 211 74 basic random walk;
#N canvas 208 233 450 278 (subpatch) 0;
#X array basic_rw 32 float 3;
#A 0 42 40 40 38 40 38 40 38 36 34 36 38 36 38 36 38 40 42 44 46 48
46 46 48 50 48 48 50 48 46 42 44;
#X coords 0 100 32 -100 200 140 1 0 0;
#X restore 672 86 graph;
#X obj 65 36 tgl 15 0 empty empty empty 17 7 0 10 #fcfcfc #000000 #000000
0 1;
#X obj 60 232 loadbang;
#X obj 65 257 s init;
#X obj 295 245 r init;
#X msg 295 269 0;
#X obj 20 91 s pulse;
#X obj 88 118 mod 32;
#X floatatom 88 142 5 0 0 0 - - - 0;
#X obj 88 91 float;
#X obj 138 91 + 1;
#X obj 88 165 s time;
#X obj 333 347 r time;
#X obj 224 106 r pulse;
#X obj 242 375 tabwrite basic_rw;
#X obj 38 230 bng 15 250 50 0 empty empty empty 17 7 0 10 #fcfcfc #000000
#000000;
#X text 39 10 start;
#X floatatom 445 264 5 0 0 0 - - - 0;
#X obj 438 136 random 2;
#X obj 438 170 sel 0 1;
#X floatatom 484 301 5 0 0 0 - - - 0;
#X obj 442 300 + 0;
#X floatatom 441 348 5 0 0 0 - - - 0;
#N canvas 208 233 450 278 (subpatch) 0;
#X array variable_rw 32 float 3;
#A 0 -58 -55 -62 -59 -63 -61 -59 -61 -58 -61 -65 -61 -58 -57 -61 -62
-58 -56 -58 -55 -42 -43 -46 -49 -50 -47 -50 -47 -50 -52 -52 -54;
#X coords 0 100 32 -100 200 140 1 0 100;
#X restore 672 254 graph;
#X obj 543 255 r init;
#X msg 543 279 0;
#X obj 535 340 r time;
#X obj 438 106 r pulse;
#X text 431 75 variable random walk;
#X obj 548 180 random 4;
#X msg 416 198 1;
#X msg 462 197 -1;
#X obj 443 230 *;
#X obj 467 374 tabwrite variable_rw;
#X obj 512 205 + 1;
#X obj 242 469 osc~;
#X obj 335 577 dac~;
#X text 21 299 volume control;
#X obj 49 328 vsl 30 128 0 1 0 0 empty empty empty 0 -9 0 10 #fcfcfc
#000000 #000000 0 1;
#X obj 45 473 s amp;
#X floatatom 97 467 5 0 0 0 - - - 0;
#X obj 283 472 r amp;
#X obj 243 498 *~;
#X obj 242 444 * 50;
#X obj 401 444 * 50;
#X obj 402 470 phasor~;
#X obj 65 58 metro 100;
#X obj 439 494 r amp;
#X obj 398 511 *~;
#X text 17 205 reset walks to zero;
#X connect 0 0 6 0;
#X connect 1 0 2 0;
#X connect 2 0 3 0;
#X connect 2 1 4 0;
#X connect 3 0 0 0;
#X connect 4 0 0 0;
#X connect 5 0 6 1;
#X connect 6 0 5 0;
#X connect 6 0 7 0;
#X connect 7 0 23 0;
#X connect 7 0 52 0;
#X connect 10 0 55 0;
#X connect 11 0 12 0;
#X connect 13 0 14 0;
#X connect 14 0 5 0;
#X connect 16 0 17 0;
#X connect 17 0 20 0;
#X connect 18 0 19 0;
#X connect 18 0 16 0;
#X connect 19 0 18 1;
#X connect 21 0 23 1;
#X connect 22 0 1 0;
#X connect 24 0 12 0;
#X connect 26 0 30 0;
#X connect 27 0 28 0;
#X connect 28 0 39 0;
#X connect 28 1 40 0;
#X connect 29 0 30 1;
#X connect 30 0 29 0;
#X connect 30 0 31 0;
#X connect 31 0 42 0;
#X connect 31 0 53 0;
#X connect 33 0 34 0;
#X connect 34 0 29 0;
#X connect 35 0 42 1;
#X connect 36 0 27 0;
#X connect 36 0 38 0;
#X connect 38 0 43 0;
#X connect 39 0 41 0;
#X connect 40 0 41 0;
#X connect 41 0 26 0;
#X connect 43 0 41 1;
#X connect 44 0 51 0;
#X connect 47 0 48 0;
#X connect 47 0 49 0;
#X connect 50 0 51 1;
#X connect 51 0 45 0;
#X connect 52 0 44 0;
#X connect 53 0 54 0;
#X connect 54 0 57 0;
#X connect 55 0 15 0;
#X connect 55 0 18 0;
#X connect 56 0 57 1;
#X connect 57 0 45 1;
